<?xml version="1.0" encoding="utf-8"?>
<!-- Generator: Adobe Illustrator 21.0.0, SVG Export Plug-In . SVG Version: 6.00 Build 0)  -->
<svg version="1.1" id="Layer_1" xmlns="http://www.w3.org/2000/svg" xmlns:xlink="http://www.w3.org/1999/xlink" x="0px" y="0px"
	 viewBox="0 0 672 644.7" style="enable-background:new 0 0 672 644.7;" xml:space="preserve">
<style type="text/css">
	.st0{fill:#FFFFFF;}
	.st1{fill:#30B52C;}
	.st2{fill:none;stroke:#000000;stroke-width:4;stroke-miterlimit:10;}
</style>
<g id="XMLID_1_">
	<g>
		<path class="st0" d="M333.2,322.4c1-0.5,1.9-0.9,2.7-1.2c-1.1,0.8-2,1.3-2.5,1.6c0,0,0,0,0-0.1c0-0.1-0.1-0.1-0.1-0.2
			C333.2,322.5,333.2,322.4,333.2,322.4C333.2,322.4,333.2,322.4,333.2,322.4z"/>
		<path class="st0" d="M333.2,322.3C333.2,322.3,333.2,322.4,333.2,322.3C333.2,322.4,333.2,322.4,333.2,322.3
			C333.2,322.4,333.2,322.4,333.2,322.3z"/>
		<path class="st0" d="M333.4,322.8c0.5-0.3,1.4-0.8,2.7-1.4c-0.7,0.5-1.5,1.1-2.5,1.8C333.6,323,333.5,322.9,333.4,322.8z"/>
		<path class="st0" d="M333.4,322.8L333.4,322.8C333.4,322.8,333.3,322.8,333.4,322.8C333.3,322.8,333.4,322.8,333.4,322.8z"/>
		<path class="st0" d="M338.8,319.6c-0.1,0-0.1,0.1-0.2,0.1C338.7,319.7,338.8,319.6,338.8,319.6z"/>
		<path class="st0" d="M333.3,322.5c0,0.1,0.1,0.1,0.1,0.2C333.3,322.6,333.3,322.6,333.3,322.5z"/>
		<path class="st0" d="M333.2,322.9c0,0,0.1-0.1,0.2-0.1C333.3,322.8,333.2,322.9,333.2,322.9z"/>
		<path class="st1" d="M174.9,481.2c-76.5,12.4-89.5-10.1-110.4-3.2c16.4-14.6,3.4-37.2,52.4-97.2c49-60.1,113.4-58.5,152-50.8
			c28.6,5.8,53.4-2.8,64.3-7.6c0,0,0,0,0,0c0,0,0,0,0,0c0,0,0,0.1,0.1,0.1c0,0,0.1,0.1,0.1,0.2c0,0,0,0.1,0,0.1c0,0-0.1,0-0.1,0
			c-0.1,0-0.1,0.1-0.2,0.1c0,0,0.1-0.1,0.2-0.1c0,0,0,0,0.1,0c0.1,0.1,0.1,0.2,0.2,0.4c-9.6,7-29.4,24.2-38.7,51.9
			C282.3,412.3,251.4,468.8,174.9,481.2z"/>
		<path class="st0" d="M333.4,322.7C333.4,322.7,333.4,322.7,333.4,322.7L333.4,322.7L333.4,322.7
			C333.4,322.8,333.4,322.7,333.4,322.7z"/>
		<path class="st0" d="M333.4,322.7C333.4,322.7,333.4,322.8,333.4,322.7C333.4,322.7,333.4,322.7,333.4,322.7
			C333.4,322.7,333.4,322.7,333.4,322.7z"/>
		<path class="st1" d="M235.9,269.9c-60.1-49-58.6-113.4-50.8-152c7.3-36.2-8.3-66.2-10.3-69.8c2.1,3.5,20.4,32,55.3,43.8
			c37.3,12.6,93.8,43.4,106.2,120c12.4,76.5-10.1,89.5-3.2,110.4C318.5,306,296,319,235.9,269.9z"/>
		<path class="st1" d="M338.8,319.6c0,0-0.1,0.1-0.2,0.1c-0.5,0.3-1.4,0.8-2.8,1.4c8.1-5.5,31-23.3,41.3-53.6
			c12.6-37.3,43.4-93.8,120-106.2c76.5-12.4,89.5,10.1,110.4,3.2c-16.4,14.6-3.4,37.2-52.4,97.2c-49,60.1-113.4,58.6-152,50.8
			c-31.3-6.3-58.1,4.6-67,8.9c1.2-0.8,2.1-1.4,2.6-1.7C338.7,319.7,338.8,319.7,338.8,319.6z"/>
		<path class="st1" d="M394.4,544.4c-60.1-49-58.6-113.4-50.8-152c7-34.9-7.3-64.1-10-69.3c0,0,0,0,0,0c3.1,5,21.3,32,55,43.4
			c37.3,12.5,93.8,43.4,106.2,120c12.4,76.5-10.1,89.5-3.2,110.4C477,580.5,454.5,593.5,394.4,544.4z"/>
		<path class="st0" d="M174.8,48c0,0,0.1,0.1,0.1,0.2C174.8,48.1,174.8,48,174.8,48z"/>
		<path class="st0" d="M333.4,322.7c0.5-0.3,1.3-0.8,2.5-1.6c1.4-0.7,2.3-1.2,2.8-1.4c-0.5,0.3-1.3,0.8-2.6,1.7
			C334.8,322,333.9,322.5,333.4,322.7C333.4,322.7,333.4,322.7,333.4,322.7z"/>
		<path class="st0" d="M333.6,323.1C333.6,323.1,333.6,323.1,333.6,323.1c-0.1-0.1-0.2-0.3-0.3-0.4l0,0
			C333.5,322.9,333.6,323,333.6,323.1z"/>
	</g>
	<g>
		<path class="st2" d="M333.2,322.3C333.2,322.3,333.2,322.3,333.2,322.3C333.2,322.4,333.2,322.4,333.2,322.3"/>
		<path class="st2" d="M333.2,322.4C333.2,322.4,333.2,322.3,333.2,322.4"/>
		<path class="st2" d="M333.6,323.1c3.1,5,21.3,32,55,43.4c37.3,12.5,93.8,43.4,106.2,120c12.4,76.5-10.1,89.5-3.2,110.4
			c-14.6-16.4-37.2-3.4-97.2-52.4c-60.1-49-58.6-113.4-50.8-152C350.7,357.6,336.4,328.4,333.6,323.1"/>
		<path class="st2" d="M174.7,47.8C174.7,47.8,174.7,47.8,174.7,47.8c0.1,0.1,0.1,0.2,0.1,0.2c0,0,0.1,0.1,0.1,0.2
			c2.1,3.5,20.4,32,55.3,43.8c37.3,12.6,93.8,43.4,106.2,120c12.4,76.5-10.1,89.5-3.2,110.4c-14.6-16.4-37.2-3.4-97.2-52.4
			c-60.1-49-58.6-113.4-50.8-152c7.3-36.2-8.3-66.2-10.3-69.8c0-0.1-0.1-0.1-0.1-0.2"/>
		<path class="st2" d="M335.9,321.1c8.1-5.5,31-23.3,41.3-53.6c12.6-37.3,43.4-93.8,120-106.2c76.5-12.4,89.5,10.1,110.4,3.2
			c-16.4,14.6-3.4,37.2-52.4,97.2c-49,60.1-113.4,58.6-152,50.8c-31.3-6.3-58.1,4.6-67,8.9"/>
		<path class="st2" d="M338.8,319.6c-0.1,0-0.1,0.1-0.2,0.1c-0.5,0.3-1.3,0.8-2.6,1.7c-0.7,0.5-1.5,1.1-2.5,1.8c0,0,0,0,0,0
			c-9.6,7-29.4,24.2-38.7,51.9c-12.5,37.3-43.4,93.8-120,106.2c-76.5,12.4-89.5-10.1-110.4-3.2c16.4-14.6,3.4-37.2,52.4-97.2
			c49-60.1,113.4-58.5,152-50.8c28.6,5.8,53.4-2.8,64.3-7.6c0,0,0,0,0,0c1-0.5,1.9-0.9,2.7-1.2c1.4-0.7,2.3-1.2,2.8-1.4
			C338.7,319.7,338.8,319.6,338.8,319.6C338.9,319.6,338.9,319.6,338.8,319.6c0.1-0.1,0.2-0.1,0.2-0.1c0,0,0,0,0,0"/>
	</g>
</g>
</svg>
