<?xml version="1.0" encoding="utf-8"?>
<!-- Generator: Adobe Illustrator 21.0.0, SVG Export Plug-In . SVG Version: 6.00 Build 0)  -->
<svg version="1.1" id="Layer_1" xmlns="http://www.w3.org/2000/svg" xmlns:xlink="http://www.w3.org/1999/xlink" x="0px" y="0px"
	 viewBox="0 0 600 600" style="enable-background:new 0 0 600 600;" xml:space="preserve">
<style type="text/css">
	.st0{fill:#2E22D3;}
	.st1{fill:#FFFFFF;}
	.st2{fill:#BC083C;}
	.st3{fill:#28003F;}
	.st4{fill:url(#SVGID_1_);}
</style>
<g>
	
		<rect x="276.5" y="281.6" transform="matrix(0.861 -0.5086 0.5086 0.861 -101.5217 212.7485)" class="st0" width="124" height="21.1"/>
	
		<rect x="233.7" y="209.3" transform="matrix(0.861 -0.5086 0.5086 0.861 -70.698 180.955)" class="st0" width="124" height="21.1"/>
	<g id="XMLID_2_">
	</g>
	
		<rect x="297.8" y="317.6" transform="matrix(0.861 -0.5086 0.5086 0.861 -116.9125 228.5886)" class="st0" width="124" height="21.1"/>
	
		<rect x="255.2" y="245.5" transform="matrix(0.861 -0.5086 0.5086 0.861 -86.1309 196.9083)" class="st0" width="124" height="21.1"/>
	<g>
		<path class="st1" d="M69.4,426.5c-32.1-54.4-14-124.7,40.3-156.8s124.7-14,156.8,40.3s14,124.7-40.3,156.8S101.5,480.9,69.4,426.5
			z"/>
	</g>
	<g>
		
			<ellipse transform="matrix(0.861 -0.5086 0.5086 0.861 -163.9735 136.646)" class="st2" cx="168" cy="368.3" rx="115.5" ry="115.5"/>
	</g>
	<g id="XMLID_16_">
		<path class="st2" d="M551,276.3L234.1,463.5c-5,2.9-11.4,1.3-14.3-3.7l-0.1-0.1c-2.9-5-1.3-11.4,3.7-14.3l65.1-38.4
			c5-2.9,6.6-9.4,3.7-14.3L228,284c-2.9-5-1.3-11.4,3.7-14.3l6.9-4.1c5-2.9,6.6-9.4,3.7-14.3l0,0c-2.9-5-9.4-6.6-14.3-3.7l-6.9,4.1
			c-5,2.9-11.4,1.3-14.3-3.7v-0.1c-2.9-5-9.4-6.6-14.3-3.7l-64.2,37.9c-5,2.9-11.4,1.3-14.3-3.7l-0.1-0.1c-2.9-5-1.3-11.4,3.7-14.3
			l271.7-160.5c5-2.9,11.4-1.3,14.3,3.7l0.1,0.1c2.9,5,1.3,11.4-3.7,14.3l-50,29.5c-5,2.9-6.6,9.4-3.7,14.3l0,0
			c2.9,5,9.4,6.6,14.3,3.7l114.1-67.4c5-2.9,11.4-1.3,14.3,3.7l0.1,0.1c2.9,5,1.3,11.4-3.7,14.3l-82.7,48.9c-5,2.9-6.6,9.4-3.7,14.3
			l0,0c2.9,5,9.4,6.6,14.3,3.7l28.5-16.8c5-2.9,11.4-1.3,14.3,3.7l0.1,0.1c2.9,5,1.3,11.4-3.7,14.3l-36.2,21.4
			c-5,2.9-6.6,9.4-3.7,14.3l0,0c2.9,5,9.4,6.6,14.3,3.7l26.3-15.5c5-2.9,11.4-1.3,14.3,3.7l0.1,0.1c2.9,5,1.3,11.4-3.7,14.3
			l-77.5,45.8c-5,2.9-6.6,9.4-3.7,14.3l0,0c2.9,5,9.4,6.6,14.3,3.7l76.7-45.3c5-2.9,11.4-1.3,14.3,3.7l0.1,0.1
			c2.9,5,1.3,11.4-3.7,14.3l-32.3,19.1c-5,2.9-6.6,9.4-3.7,14.3l0,0c2.9,5,9.4,6.6,14.3,3.7l77.5-45.8c5-2.9,11.4-1.3,14.3,3.7
			l0.1,0.1C557.6,266.9,555.9,273.3,551,276.3z"/>
	</g>
	<path class="st3" d="M322.9,179.3L322.9,179.3c-3-5-9.4-6.7-14.4-3.7l-15.4,9.1c-5,3-6.7,9.4-3.7,14.4l0,0c3,5,9.4,6.7,14.4,3.7
		l15.4-9.1C324.2,190.7,325.9,184.3,322.9,179.3z"/>
	<path class="st3" d="M394.1,234.9L394.1,234.9c-3-5-9.4-6.7-14.4-3.7l-24.9,14.7c-5,3-6.7,9.4-3.7,14.4l0,0c3,5,9.4,6.7,14.4,3.7
		l24.9-14.7C395.4,246.4,397.1,239.9,394.1,234.9z"/>
	<path class="st3" d="M420.5,316.9L420.5,316.9c-3-5-9.4-6.7-14.4-3.7l-19.8,11.7c-5,3-6.7,9.4-3.7,14.4l0,0c3,5,9.4,6.7,14.4,3.7
		l19.7-11.7C421.8,328.4,423.4,321.9,420.5,316.9z"/>
	<g id="XMLID_1_">
		<g id="XMLID_4_">
			
				<linearGradient id="SVGID_1_" gradientUnits="userSpaceOnUse" x1="193.9655" y1="1091.058" x2="185.9655" y2="843.0581" gradientTransform="matrix(0.5086 0.861 0.861 -0.5086 -715.5896 668.7335)">
				<stop  offset="5.000000e-03" style="stop-color:#28003F"/>
				<stop  offset="0.4181" style="stop-color:#290041"/>
				<stop  offset="0.5668" style="stop-color:#2A0048"/>
				<stop  offset="0.6729" style="stop-color:#2E0053"/>
				<stop  offset="0.7587" style="stop-color:#320064"/>
				<stop  offset="0.8321" style="stop-color:#38007A"/>
				<stop  offset="0.8971" style="stop-color:#400096"/>
				<stop  offset="0.9545" style="stop-color:#4800B5"/>
				<stop  offset="1" style="stop-color:#5100D4"/>
			</linearGradient>
			<path class="st4" d="M223.7,445.1c-0.8,0.5-1.7,0.8-2.5,1.1c-2.2,1.6-4.5,3.1-6.9,4.5c-44.9,26.5-102.9,11.6-129.4-33.3
				s-11.6-102.9,33.3-129.5c2.4-1.4,4.8-2.7,7.3-3.9c0.6-0.6,1.3-1.2,2.2-1.7L255.2,207c5-2.9,11.3-1.3,14.3,3.7l0.1,0.2
				c2.9,5,1.3,11.3-3.7,14.3L246,237c-5,2.9-6.6,9.3-3.7,14.3l0.1,0.2c2.9,5,9.3,6.6,14.3,3.7l94-55.5c5-2.9,11.3-1.3,14.3,3.7
				l0.1,0.2c2.9,5,1.3,11.3-3.7,14.3l-94,55.5c-5,2.9-6.6,9.3-3.7,14.3l0.1,0.1c2.9,5,9.3,6.6,14.3,3.7l43.2-25.5
				c5-2.9,11.3-1.3,14.3,3.7l0.1,0.2c2.9,5,1.3,11.3-3.7,14.3l-43.2,25.5c-5,2.9-6.6,9.3-3.7,14.3c1.5,2.5,3.8,4.1,6.4,4.8
				c2.6,0.7,5.4,0.3,7.9-1.1l47.5-28.1c5-2.9,11.3-1.3,14.3,3.7l0.1,0.2c2.9,5,1.3,11.3-3.7,14.3l-47.5,28.1
				c-5,2.9-6.6,9.3-3.7,14.3c1.5,2.5,3.8,4.1,6.4,4.8c2.6,0.7,5.4,0.3,7.9-1.1l27.6-16.9c5-2.9,11.3-1.3,14.3,3.7l0.1,0.2
				c2.9,5,1.3,11.3-3.7,14.3L223.7,445.1z"/>
		</g>
	</g>
	<path class="st2" d="M540.7,172.5L540.7,172.5c-2.9-5-9.4-6.6-14.4-3.7L485,193.2c-5,2.9-6.6,9.4-3.7,14.4l0,0
		c2.9,5,9.4,6.6,14.4,3.7l41.3-24.4C542,183.9,543.7,177.5,540.7,172.5z"/>
</g>
</svg>
