<?xml version="1.0" encoding="utf-8"?>
<!-- Generator: Adobe Illustrator 21.0.0, SVG Export Plug-In . SVG Version: 6.00 Build 0)  -->
<svg version="1.1" id="Layer_1" xmlns="http://www.w3.org/2000/svg" xmlns:xlink="http://www.w3.org/1999/xlink" x="0px" y="0px"
	 viewBox="0 0 600 600" style="enable-background:new 0 0 600 600;" xml:space="preserve">
<style type="text/css">
	.st0{fill:#2E22D3;}
	.st1{fill:#FFFFFF;}
	.st2{fill:#51007F;}
	.st3{fill:url(#SVGID_1_);}
</style>
<g>
	
		<rect x="307.7" y="254.2" transform="matrix(0.5086 0.861 -0.861 0.5086 428.6271 -118.6004)" class="st0" width="21.1" height="124"/>
	
		<rect x="265" y="181.9" transform="matrix(0.5086 0.861 -0.861 0.5086 345.3389 -117.3536)" class="st0" width="21.1" height="124"/>
	<g id="XMLID_2_">
		<g>
		</g>
		<g>
		</g>
	</g>
	
		<rect x="329" y="290.3" transform="matrix(0.5086 0.861 -0.861 0.5086 470.1607 -119.2222)" class="st0" width="21.1" height="124"/>
	
		<rect x="286.4" y="218.1" transform="matrix(0.5086 0.861 -0.861 0.5086 387.0934 -117.9787)" class="st0" width="21.1" height="124"/>
	<g>
		<path class="st1" d="M49.2,450.6c-32.1-54.4-14-124.7,40.3-156.8s124.7-14,156.8,40.3s14,124.7-40.3,156.8S81.3,505,49.2,450.6z"
			/>
	</g>
	<g>
		
			<ellipse transform="matrix(0.861 -0.5086 0.5086 0.861 -179.0325 129.6991)" class="st2" cx="147.8" cy="392.4" rx="115.5" ry="115.5"/>
	</g>
	<g id="XMLID_16_">
		<path class="st2" d="M530.7,300.4L213.8,487.6c-5,2.9-11.4,1.3-14.3-3.7l-0.1-0.1c-2.9-5-1.3-11.4,3.7-14.3l65.1-38.4
			c5-2.9,6.6-9.4,3.7-14.3l-64.1-108.5c-2.9-5-1.3-11.4,3.7-14.3l6.9-4.1c5-2.9,6.6-9.4,3.7-14.3v0c-2.9-5-9.4-6.6-14.3-3.7
			l-6.9,4.1c-5,2.9-11.4,1.3-14.3-3.7l0-0.1c-2.9-5-9.4-6.6-14.3-3.7l-64.2,37.9c-5,2.9-11.4,1.3-14.3-3.7l-0.1-0.1
			c-2.9-5-1.3-11.4,3.7-14.3l271.7-160.5c5-2.9,11.4-1.3,14.3,3.7l0.1,0.1c2.9,5,1.3,11.4-3.7,14.3l-50,29.5
			c-5,2.9-6.6,9.4-3.7,14.3v0c2.9,5,9.4,6.6,14.3,3.7l114.1-67.4c5-2.9,11.4-1.3,14.3,3.7l0.1,0.1c2.9,5,1.3,11.4-3.7,14.3
			l-82.7,48.9c-5,2.9-6.6,9.4-3.7,14.3v0c2.9,5,9.4,6.6,14.3,3.7l28.5-16.8c5-2.9,11.4-1.3,14.3,3.7l0.1,0.1
			c2.9,5,1.3,11.4-3.7,14.3L396,233.6c-5,2.9-6.6,9.4-3.7,14.3v0c2.9,5,9.4,6.6,14.3,3.7l26.3-15.5c5-2.9,11.4-1.3,14.3,3.7l0.1,0.1
			c2.9,5,1.3,11.4-3.7,14.3L366.1,300c-5,2.9-6.6,9.4-3.7,14.3h0c2.9,5,9.4,6.6,14.3,3.7l76.7-45.3c5-2.9,11.4-1.3,14.3,3.7l0.1,0.1
			c2.9,5,1.3,11.4-3.7,14.3L431.8,310c-5,2.9-6.6,9.4-3.7,14.3v0c2.9,5,9.4,6.6,14.3,3.7l77.5-45.8c5-2.9,11.4-1.3,14.3,3.7l0.1,0.1
			C537.4,291,535.7,297.4,530.7,300.4z"/>
	</g>
	<path class="st0" d="M302.7,203.4L302.7,203.4c-3-5-9.4-6.7-14.4-3.7l-15.4,9.1c-5,3-6.7,9.4-3.7,14.4v0c3,5,9.4,6.7,14.4,3.7
		l15.4-9.1C303.9,214.8,305.6,208.4,302.7,203.4z"/>
	<path class="st0" d="M373.9,259L373.9,259c-3-5-9.4-6.7-14.4-3.7L334.5,270c-5,3-6.7,9.4-3.7,14.4l0,0c3,5,9.4,6.7,14.4,3.7
		l24.9-14.7C375.2,270.5,376.8,264,373.9,259z"/>
	<path class="st0" d="M400.2,341L400.2,341c-3-5-9.4-6.7-14.4-3.7L366.1,349c-5,3-6.7,9.4-3.7,14.4v0c3,5,9.4,6.7,14.4,3.7
		l19.7-11.7C401.5,352.5,403.2,346,400.2,341z"/>
	<path class="st2" d="M440.9,97.3L440.9,97.3c-2.9-5-9.4-6.6-14.4-3.7l-29.3,17.3c-5,2.9-6.6,9.4-3.7,14.4v0c2.9,5,9.4,6.6,14.4,3.7
		l29.3-17.3C442.2,108.7,443.9,102.3,440.9,97.3z"/>
	<g id="XMLID_1_">
		<g id="XMLID_4_">
			
				<linearGradient id="SVGID_1_" gradientUnits="userSpaceOnUse" x1="322.4531" y1="225.4714" x2="314.4531" y2="473.4714" gradientTransform="matrix(0.5086 0.861 -0.861 0.5086 332.344 -87.3981)">
				<stop  offset="5.000000e-03" style="stop-color:#2E22D3"/>
				<stop  offset="0.2861" style="stop-color:#3026D6"/>
				<stop  offset="0.5485" style="stop-color:#3631DF"/>
				<stop  offset="0.8026" style="stop-color:#4144EF"/>
				<stop  offset="1" style="stop-color:#4C58FF"/>
			</linearGradient>
			<path class="st3" d="M203.5,469.2c-0.8,0.5-1.7,0.8-2.5,1.1c-2.2,1.6-4.5,3.1-6.9,4.5c-44.9,26.5-102.9,11.6-129.4-33.3
				S53,338.6,98,312c2.4-1.4,4.8-2.7,7.3-3.9c0.6-0.6,1.3-1.2,2.2-1.7l127.6-75.4c5-2.9,11.3-1.3,14.3,3.7l0.1,0.2
				c2.9,5,1.3,11.3-3.7,14.3L225.7,261c-5,2.9-6.6,9.3-3.7,14.3l0.1,0.2c2.9,5,9.3,6.6,14.3,3.7l94-55.5c5-2.9,11.3-1.3,14.3,3.7
				l0.1,0.2c2.9,5,1.3,11.3-3.7,14.3l-94,55.5c-5,2.9-6.6,9.3-3.7,14.3l0.1,0.1c2.9,5,9.3,6.6,14.3,3.7l43.2-25.5
				c5-2.9,11.3-1.3,14.3,3.7l0.1,0.2c2.9,5,1.3,11.3-3.7,14.3l-43.2,25.5c-5,2.9-6.6,9.3-3.7,14.3c1.5,2.5,3.8,4.1,6.4,4.8
				c2.6,0.7,5.4,0.3,7.9-1.1l47.5-28.1c5-2.9,11.3-1.3,14.3,3.7l0.1,0.2c2.9,5,1.3,11.3-3.7,14.3l-47.5,28.1
				c-5,2.9-6.6,9.3-3.7,14.3c1.5,2.5,3.8,4.1,6.4,4.8c2.6,0.7,5.4,0.3,7.9-1.1l27.7-16.4c5-2.9,11.3-1.3,14.3,3.7l0.1,0.2
				c2.9,5,1.3,11.3-3.7,14.3L203.5,469.2z"/>
		</g>
	</g>
	<path class="st2" d="M510.3,153.8L510.3,153.8c-2.9-5-9.4-6.6-14.4-3.7l-45.6,27c-5,2.9-6.6,9.4-3.7,14.4v0c2.9,5,9.4,6.6,14.4,3.7
		l45.6-27C511.6,165.2,513.3,158.8,510.3,153.8z"/>
	<path class="st2" d="M520.5,196.6L520.5,196.6c-2.9-5-9.4-6.6-14.4-3.7l-41.3,24.4c-5,2.9-6.6,9.4-3.7,14.4v0
		c2.9,5,9.4,6.6,14.4,3.7l41.3-24.4C521.8,208,523.4,201.6,520.5,196.6z"/>
	<path class="st2" d="M566.3,218.4L566.3,218.4c-2.9-5-9.4-6.6-14.4-3.7L483,255.4c-5,2.9-6.6,9.4-3.7,14.4l0,0
		c2.9,5,9.4,6.6,14.4,3.7l68.9-40.7C567.6,229.8,569.2,223.4,566.3,218.4z"/>
</g>
</svg>
