<?xml version="1.0" encoding="utf-8"?>
<!-- Generator: Adobe Illustrator 21.0.0, SVG Export Plug-In . SVG Version: 6.00 Build 0)  -->
<svg version="1.1" id="Layer_1" xmlns="http://www.w3.org/2000/svg" xmlns:xlink="http://www.w3.org/1999/xlink" x="0px" y="0px"
	 viewBox="0 0 504 384" style="enable-background:new 0 0 504 384;" xml:space="preserve">
<style type="text/css">
	.st0{fill:#2E22D3;}
	.st1{fill:#FFFFFF;}
	.st2{fill:#BC083C;}
	.st3{fill:#28003F;}
	.st4{fill:url(#SVGID_1_);}
</style>
<g>
	
		<rect x="275.6" y="130.1" transform="matrix(0.5086 0.861 -0.861 0.5086 306.0248 -151.9769)" class="st0" width="21.1" height="124"/>
	
		<rect x="232.9" y="57.8" transform="matrix(0.5086 0.861 -0.861 0.5086 222.7366 -150.7301)" class="st0" width="21.1" height="124"/>
	<g id="XMLID_2_">
		<g>
		</g>
		<g>
		</g>
	</g>
	
		<rect x="296.9" y="166.2" transform="matrix(0.5086 0.861 -0.861 0.5086 347.5585 -152.5987)" class="st0" width="21.1" height="124"/>
	
		<rect x="254.3" y="94" transform="matrix(0.5086 0.861 -0.861 0.5086 264.4912 -151.3551)" class="st0" width="21.1" height="124"/>
	<g>
		<path class="st1" d="M17.1,326.5c-32.1-54.4-14-124.7,40.3-156.8s124.7-14,156.8,40.3s14,124.7-40.3,156.8S49.2,380.9,17.1,326.5z
			"/>
	</g>
	<g>
		
			<ellipse transform="matrix(0.861 -0.5086 0.5086 0.861 -120.3702 96.1421)" class="st2" cx="115.7" cy="268.3" rx="115.5" ry="115.5"/>
	</g>
	<g id="XMLID_16_">
		<path class="st2" d="M498.7,176.3L181.8,363.5c-5,2.9-11.4,1.3-14.3-3.7l-0.1-0.1c-2.9-5-1.3-11.4,3.7-14.3l65.1-38.4
			c5-2.9,6.6-9.4,3.7-14.3L175.7,184c-2.9-5-1.3-11.4,3.7-14.3l6.9-4.1c5-2.9,6.6-9.4,3.7-14.3l0,0c-2.9-5-9.4-6.6-14.3-3.7
			l-6.9,4.1c-5,2.9-11.4,1.3-14.3-3.7l0-0.1c-2.9-5-9.4-6.6-14.3-3.7l-64.2,37.9c-5,2.9-11.4,1.3-14.3-3.7l-0.1-0.1
			c-2.9-5-1.3-11.4,3.7-14.3L336.8,3.5c5-2.9,11.4-1.3,14.3,3.7l0.1,0.1c2.9,5,1.3,11.4-3.7,14.3l-50,29.5c-5,2.9-6.6,9.4-3.7,14.3
			l0,0c2.9,5,9.4,6.6,14.3,3.7L422.3,1.8c5-2.9,11.4-1.3,14.3,3.7l0.1,0.1c2.9,5,1.3,11.4-3.7,14.3l-82.7,48.9
			c-5,2.9-6.6,9.4-3.7,14.3v0c2.9,5,9.4,6.6,14.3,3.7L389.4,70c5-2.9,11.4-1.3,14.3,3.7l0.1,0.1c2.9,5,1.3,11.4-3.7,14.3l-36.2,21.4
			c-5,2.9-6.6,9.4-3.7,14.3l0,0c2.9,5,9.4,6.6,14.3,3.7l26.3-15.5c5-2.9,11.4-1.3,14.3,3.7l0.1,0.1c2.9,5,1.3,11.4-3.7,14.3
			l-77.5,45.8c-5,2.9-6.6,9.4-3.7,14.3v0c2.9,5,9.4,6.6,14.3,3.7l76.7-45.3c5-2.9,11.4-1.3,14.3,3.7l0.1,0.1
			c2.9,5,1.3,11.4-3.7,14.3l-32.3,19.1c-5,2.9-6.6,9.4-3.7,14.3v0c2.9,5,9.4,6.6,14.3,3.7l77.5-45.8c5-2.9,11.4-1.3,14.3,3.7
			l0.1,0.1C505.3,166.9,503.6,173.3,498.7,176.3z"/>
	</g>
	<path class="st3" d="M270.6,79.3L270.6,79.3c-3-5-9.4-6.7-14.4-3.7l-15.4,9.1c-5,3-6.7,9.4-3.7,14.4l0,0c3,5,9.4,6.7,14.4,3.7
		l15.4-9.1C271.9,90.7,273.6,84.3,270.6,79.3z"/>
	<path class="st3" d="M341.8,134.9L341.8,134.9c-3-5-9.4-6.7-14.4-3.7l-24.9,14.7c-5,3-6.7,9.4-3.7,14.4l0,0c3,5,9.4,6.7,14.4,3.7
		l24.9-14.7C343.1,146.4,344.8,139.9,341.8,134.9z"/>
	<path class="st3" d="M368.2,216.9L368.2,216.9c-3-5-9.4-6.7-14.4-3.7L334,224.9c-5,3-6.7,9.4-3.7,14.4l0,0c3,5,9.4,6.7,14.4,3.7
		l19.7-11.7C369.5,228.4,371.1,221.9,368.2,216.9z"/>
	<g id="XMLID_1_">
		<g id="XMLID_4_">
			
				<linearGradient id="SVGID_1_" gradientUnits="userSpaceOnUse" x1="269.5601" y1="95.0678" x2="261.5601" y2="343.0677" gradientTransform="matrix(0.5086 0.861 -0.861 0.5086 214.9094 -99.6311)">
				<stop  offset="5.000000e-03" style="stop-color:#28003F"/>
				<stop  offset="0.4181" style="stop-color:#290041"/>
				<stop  offset="0.5668" style="stop-color:#2A0048"/>
				<stop  offset="0.6729" style="stop-color:#2E0053"/>
				<stop  offset="0.7587" style="stop-color:#320064"/>
				<stop  offset="0.8321" style="stop-color:#38007A"/>
				<stop  offset="0.8971" style="stop-color:#400096"/>
				<stop  offset="0.9545" style="stop-color:#4800B5"/>
				<stop  offset="1" style="stop-color:#5100D4"/>
			</linearGradient>
			<path class="st4" d="M171.4,345.1c-0.8,0.5-1.7,0.8-2.5,1.1c-2.2,1.6-4.5,3.1-6.9,4.5c-44.9,26.5-102.9,11.6-129.4-33.3
				S21,214.5,65.9,187.9c2.4-1.4,4.8-2.7,7.3-3.9c0.6-0.6,1.3-1.2,2.2-1.7L202.9,107c5-2.9,11.3-1.3,14.3,3.7l0.1,0.2
				c2.9,5,1.3,11.3-3.7,14.3l-19.9,11.8c-5,2.9-6.6,9.3-3.7,14.3l0.1,0.2c2.9,5,9.3,6.6,14.3,3.7l94-55.5c5-2.9,11.3-1.3,14.3,3.7
				l0.1,0.2c2.9,5,1.3,11.3-3.7,14.3l-94,55.5c-5,2.9-6.6,9.3-3.7,14.3l0.1,0.1c2.9,5,9.3,6.6,14.3,3.7l43.2-25.5
				c5-2.9,11.3-1.3,14.3,3.7l0.1,0.2c2.9,5,1.3,11.3-3.7,14.3l-43.2,25.5c-5,2.9-6.6,9.3-3.7,14.3c1.5,2.5,3.8,4.1,6.4,4.8
				c2.6,0.7,5.4,0.3,7.9-1.1l47.5-28.1c5-2.9,11.3-1.3,14.3,3.7l0.1,0.2c2.9,5,1.3,11.3-3.7,14.3l-47.5,28.1
				c-5,2.9-6.6,9.3-3.7,14.3c1.5,2.5,3.8,4.1,6.4,4.8c2.6,0.7,5.4,0.3,7.9-1.1L296,247c5-2.9,11.3-1.3,14.3,3.7l0.1,0.2
				c2.9,5,1.3,11.3-3.7,14.3L171.4,345.1z"/>
		</g>
	</g>
	<path class="st2" d="M488.4,72.5L488.4,72.5c-2.9-5-9.4-6.6-14.4-3.7l-41.3,24.4c-5,2.9-6.6,9.4-3.7,14.4l0,0
		c2.9,5,9.4,6.6,14.4,3.7l41.3-24.4C489.7,83.9,491.4,77.5,488.4,72.5z"/>
</g>
</svg>
