<svg id="Object" xmlns="http://www.w3.org/2000/svg" viewBox="0 0 1122 1122"><defs><style>.cls-1{fill:#331a52;}.cls-2{fill:#bc083c;}</style></defs><title>share</title><path class="cls-1" d="M677,402.31A122.45,122.45,0,0,0,743.65,422c68,0,123.31-55.26,123.31-123.17S811.63,175.73,743.65,175.73,620.36,231,620.36,298.87A122,122,0,0,0,625,331.81L551.9,383.65,436.15,465.76a122.68,122.68,0,0,0-57.82-14.43c-68,0-123.29,55.24-123.29,123.14S310.36,697.6,378.33,697.6a122.62,122.62,0,0,0,77.44-27.43l96.13,68.19L625,790.2a121.53,121.53,0,0,0-4.62,32.91c0,67.91,55.3,123.17,123.29,123.17S867,891,867,823.11,811.63,700,743.65,700a122.74,122.74,0,0,0-66.75,19.75L572.28,645.49l-72.35-51.33a124.17,124.17,0,0,0,1.72-19.69A122.62,122.62,0,0,0,494,532.12l78.3-55.56Zm64-174a69.4,69.4,0,1,1-69.42,69.38A69.4,69.4,0,0,1,740.92,228.27Zm-364,419.63a69.4,69.4,0,1,1,69.37-69.4A69.4,69.4,0,0,1,376.92,647.9Zm364,106.78a69.4,69.4,0,1,1-69.42,69.38A69.4,69.4,0,0,1,740.92,754.68Z"/><path class="cls-2" d="M671.51,824.06a69.4,69.4,0,1,0,69.42-69.38A69.4,69.4,0,0,0,671.51,824.06Z"/><path class="cls-2" d="M307.51,578.49a69.39,69.39,0,1,0,69.41-69.39A69.4,69.4,0,0,0,307.51,578.49Z"/><path class="cls-2" d="M671.51,297.65a69.4,69.4,0,1,0,69.42-69.38A69.41,69.41,0,0,0,671.51,297.65Z"/></svg>